<svg width="40" height="40" viewBox="0 0 40 40" fill="none" xmlns="http://www.w3.org/2000/svg">
<path d="M33.6978 18.404H33.4182C33.4119 18.2064 33.4032 18.007 33.3913 17.8061C33.3436 17.0032 32.7459 16.3789 32.0244 16.3789H1.40456C0.682827 16.3789 0.084577 17.0036 0.0374477 17.8069C0.0126043 18.2309 0 18.6473 0 19.045C0 26.3092 3.74514 32.6156 9.19478 35.6904C9.03951 36.0734 8.95092 36.497 8.95092 36.944C8.95092 38.6291 10.1801 40 11.691 40H21.7379C23.2488 40 24.478 38.6291 24.478 36.944C24.478 36.497 24.3894 36.0734 24.2341 35.6904C25.7352 34.8435 27.1065 33.7516 28.3063 32.4618H33.6978C37.1728 32.4618 40 29.3086 40 25.4329C40 21.5573 37.1728 18.404 33.6978 18.404ZM33.6978 29.4058H30.6028C32.0057 27.074 32.9496 24.3717 33.2888 21.4601H33.6978C35.6619 21.4601 37.2599 23.2423 37.2599 25.4329C37.2599 27.6235 35.6619 29.4058 33.6978 29.4058ZM20.0331 14.4652H15.9533C13.7879 14.4652 12.026 12.5002 12.026 10.0849C12.026 7.66962 13.7879 5.70459 15.9533 5.70459H16.471C17.1257 5.70459 17.6583 5.1105 17.6583 4.38031V1.52802C17.6583 0.68394 18.2716 0 19.0284 0C19.7852 0 20.3984 0.68394 20.3984 1.52802V4.38031C20.3984 6.7956 18.6365 8.76063 16.471 8.76063H15.9533C15.2986 8.76063 14.7661 9.35472 14.7661 10.0849C14.7661 10.8151 15.2986 11.4092 15.9533 11.4092H20.0331C20.7899 11.4092 21.4031 12.0931 21.4031 12.9372C21.4031 13.7813 20.7899 14.4652 20.0331 14.4652Z" fill="#372926"/>
</svg>
