<svg width="28" height="40" viewBox="0 0 28 40" fill="none" xmlns="http://www.w3.org/2000/svg">
<path d="M26.3334 36H24.3334V22.6666H24.6667C25.2181 22.6666 25.6667 22.218 25.6667 21.6666V19.6666C25.6667 19.1153 25.2181 18.6666 24.6667 18.6666H17.8701C19.6327 17.428 20.8221 15.4359 20.9748 13.1606C21.3854 12.9327 21.6668 12.4999 21.6668 11.998V10.6687C21.6668 9.93203 21.0681 9.33336 20.3315 9.33336H14.3335V8H25C25.3687 8 25.6667 7.70133 25.6667 7.33336V5.23867C26.814 4.9407 27.6667 3.90531 27.6667 2.66664C27.6667 1.19602 26.4707 0 25 0C23.5293 0 22.3334 1.19602 22.3334 2.66664C22.3334 3.90531 23.1867 4.94063 24.3334 5.23867V6.66664H13.6667C13.2987 6.66664 13 6.96531 13 7.33328V9.33328H7.00205C6.2654 9.33328 5.66673 9.93195 5.66673 10.6686V11.9979C5.66673 12.4999 5.94806 12.9326 6.35876 13.1605C6.51142 15.4359 7.7008 17.4279 9.46345 18.6666H2.66681C2.11548 18.6666 1.66681 19.1152 1.66681 19.6666V21.6666C1.66681 22.2179 2.11548 22.6666 2.66681 22.6666H3.00017V36H1.00001C0.632046 36 0.333374 36.2987 0.333374 36.6666V39.3333C0.333374 39.7013 0.632046 39.9999 1.00001 39.9999H26.3334C26.702 39.9999 27 39.7013 27 39.3333V36.6666C27 36.2987 26.702 36 26.3334 36ZM20.3334 28.6666V34C20.3334 34.368 20.0347 34.6666 19.6667 34.6666H7.66673C7.29876 34.6666 7.00009 34.368 7.00009 34V28.6666C7.00009 28.2987 7.29876 28 7.66673 28H19.6667C20.0347 28 20.3334 28.2987 20.3334 28.6666ZM7.00001 11.998L7.00205 10.6666L20.3334 10.6687L20.3327 12L7.00001 11.998ZM25.6667 38.6666H1.66666V37.3333H3.00001H24.3334H25.6667V38.6666H25.6667Z" fill="#372926"/>
<path d="M8.33337 33.3334H19V29.3334H8.33337V33.3334ZM10.3334 30.6667H17C17.368 30.6667 17.6667 30.9653 17.6667 31.3333C17.6667 31.7013 17.368 31.9999 17 31.9999H10.3334C9.96541 31.9999 9.66674 31.7013 9.66674 31.3333C9.66674 30.9653 9.96533 30.6667 10.3334 30.6667Z" fill="#372926"/>
</svg>
