<svg width="40" height="40" viewBox="0 0 40 40" fill="none" xmlns="http://www.w3.org/2000/svg">
<path d="M21.3352 24.5986C21.3352 19.8579 25.2229 16.0009 30.0012 16.0009C34.2529 16.0009 37.3386 13.2164 37.3386 9.38016V8.0603C36.5494 7.5994 35.6348 7.33069 34.6568 7.33069H33.9902C26.2768 7.33069 20.0019 13.6094 20.0019 21.3267C20.0019 22.6759 20.5079 23.9064 21.3352 24.8482V24.5986Z" fill="#372926"/>
<path d="M38.6721 9.16107V9.37984C38.6721 13.9898 35.0251 17.3353 30.0007 17.3353C25.9576 17.3353 22.6686 20.594 22.6686 24.5984V25.9463C23.4565 26.4051 24.3691 26.6726 25.3444 26.6726H26.011C33.7251 26.6726 40 20.3939 40 12.6766C40.0001 11.33 39.4961 10.1022 38.6721 9.16107Z" fill="#372926"/>
<path d="M9.91632 11.6159C9.90163 11.6506 9.88296 11.6832 9.86163 11.7146C8.7657 13.3546 8.41838 15.3295 8.90967 17.1335C9.38495 18.8823 10.6209 20.3156 12.3894 21.1699L13.7 21.7295C14.464 21.2306 15.1139 20.5516 15.5486 19.7033L15.8532 19.1084C17.5271 15.8403 17.7951 12.1367 16.6092 8.67994C15.374 5.08106 12.7321 2.18584 9.16973 0.527169C7.89779 -0.0651142 6.50195 -0.13913 5.23602 0.209065L5.45866 0.321144C9.93499 2.40531 11.8595 7.26465 9.91632 11.6159Z" fill="#372926"/>
<path d="M8.16834 22.1354C8.94227 22.4962 9.76291 22.6669 10.5722 22.6669C11.0728 22.6669 11.5687 22.5995 12.0467 22.4735L11.8381 22.3841C9.68823 21.3457 8.20099 19.6103 7.62306 17.4841C7.03576 15.3252 7.43644 12.9735 8.72095 11.022C10.3215 7.36712 8.67697 3.29077 4.87857 1.52197L3.65998 0.911011C2.88472 1.41052 2.22946 2.10081 1.78941 2.95985L1.48474 3.55409C-0.189121 6.82212 -0.457149 10.5264 0.728783 13.9832C1.96409 17.5814 4.60663 20.4773 8.16834 22.1354Z" fill="#372926"/>
<path d="M12.6983 31.4649C15.998 34.783 19.6085 34.8711 22.8662 31.7117C22.8842 31.6943 22.9029 31.6783 22.9229 31.663L23.8288 30.9627C23.5775 29.9943 23.0462 29.1132 22.2709 28.4163L21.7783 27.9661C15.9167 22.5358 6.82203 22.7605 1.51772 28.4523C0.602393 29.3774 0.0797732 30.5646 0.0144653 31.8292L0.261089 31.6378C4.51548 27.7894 8.94587 27.7161 12.6983 31.4649Z" fill="#372926"/>
<path d="M11.7544 32.4068C8.49063 29.1461 4.91088 29.2301 1.11646 32.6595L0.172546 33.3932C0.423154 34.3563 0.947179 35.234 1.71244 35.9336L2.20842 36.3864C2.21311 36.3911 2.21842 36.3951 2.22373 36.3998C5.02556 38.8061 8.58797 40 12.127 40C15.9234 40 19.6925 38.6254 22.4636 35.899C23.3869 34.9733 23.9156 33.7888 23.9849 32.5282L23.7669 32.6963C19.9619 36.3651 15.5861 36.2597 11.7544 32.4068Z" fill="#372926"/>
</svg>
