<svg width="40" height="40" viewBox="0 0 40 40" fill="none" xmlns="http://www.w3.org/2000/svg">
<path d="M2.9299 15.2753H37.0702C37.9708 15.2753 38.701 14.5892 38.701 13.7428V1.53276C38.701 0.686258 37.9709 0 37.0702 0H2.9299C2.02939 0 1.29913 0.686258 1.29913 1.53276V13.7428C1.29913 14.5892 2.02926 15.2753 2.9299 15.2753ZM32.5037 3.34638C33.4046 3.34638 34.1346 4.03252 34.1346 4.8789C34.1346 5.72528 33.4045 6.41153 32.5037 6.41153C31.6032 6.41153 30.8728 5.72528 30.8728 4.8789C30.8727 4.03252 31.6031 3.34638 32.5037 3.34638ZM27.0673 3.34638C27.968 3.34638 28.6981 4.03252 28.6981 4.8789C28.6981 5.72528 27.9678 6.41153 27.0673 6.41153C26.1666 6.41153 25.4364 5.72528 25.4364 4.8789C25.4364 4.03252 26.1666 3.34638 27.0673 3.34638ZM21.6311 3.34638C22.5316 3.34638 23.2619 4.03252 23.2619 4.8789C23.2619 5.72528 22.5316 6.41153 21.6311 6.41153C20.7302 6.41153 20.0001 5.72528 20.0001 4.8789C20.0001 4.03252 20.7302 3.34638 21.6311 3.34638ZM10.0132 2.94515C12.771 2.94515 15.0067 5.04614 15.0067 7.63779C15.0067 10.2293 12.771 12.3303 10.0132 12.3303C7.25541 12.3303 5.01987 10.2293 5.01987 7.63779C5.01987 5.04614 7.25541 2.94515 10.0132 2.94515Z" fill="#372926"/>
<path d="M8.96033 9.80194C9.29445 9.80194 9.60846 9.67973 9.84439 9.45789C10.28 9.04869 12.213 5.8385 12.295 5.70218C12.3309 5.64206 12.3199 5.56697 12.2683 5.51838C12.2165 5.46954 12.1363 5.45924 12.0729 5.49323C11.9277 5.5704 8.51157 7.38721 8.0764 7.79629C7.84007 8.01826 7.7099 8.31323 7.7099 8.62709C7.7099 8.94096 7.83994 9.23617 8.0764 9.45801C8.31246 9.67973 8.6266 9.80194 8.96033 9.80194Z" fill="#372926"/>
<path d="M38.1246 36.4747H36.6992C33.7067 30.0811 33.2951 23.4572 35.4632 17H22.5457L22.0177 20.6249C21.9736 20.9288 21.6974 21.1552 21.371 21.1552H18.6291C18.3027 21.1552 18.0266 20.9287 17.9824 20.6249L17.4544 17H4.5369C6.70508 23.4571 6.2934 30.0811 3.30096 36.4747H1.87558C0.839799 36.4747 0 37.2639 0 38.2374C0 39.211 0.839799 40 1.87558 40H38.1244C39.1602 40 40 39.2109 40 38.2374C40.0001 37.2638 39.1603 36.4747 38.1246 36.4747ZM28.8024 30.3912C28.2674 31.6636 26.6054 33.0312 24.2111 33.0599C23.5883 33.8625 22.851 34.4908 22.0284 34.9094C21.9826 34.9328 21.9314 34.9449 21.8793 34.9449H17.025C16.973 34.9449 16.9217 34.9328 16.876 34.9094C15.6013 34.2607 14.5294 33.1108 13.7757 31.584C13.0521 30.1182 12.6696 28.4118 12.6696 26.6499C12.6696 26.4876 12.8095 26.3559 12.9824 26.3559H25.9217C26.0945 26.3559 26.2346 26.4876 26.2346 26.6499C26.2346 26.7528 26.2329 26.8553 26.2304 26.9578C26.242 26.9577 26.2538 26.9574 26.2654 26.9574C27.268 26.9574 28.1237 27.3454 28.613 28.0216C29.0898 28.6802 29.1587 29.5439 28.8024 30.3912Z" fill="#372926"/>
<path d="M15.9841 30.919C15.6223 30.1864 15.431 29.3309 15.431 28.4449C15.431 28.2337 15.2489 28.0627 15.0243 28.0627C14.7996 28.0627 14.6176 28.2338 14.6176 28.4449C14.6176 29.4413 14.8349 30.4081 15.2462 31.2408C15.315 31.3804 15.4619 31.4623 15.6154 31.4623C15.6726 31.4623 15.7309 31.4508 15.7863 31.4266C15.9901 31.3377 16.0786 31.1105 15.9841 30.919Z" fill="#372926"/>
<path d="M26.2655 28.3561L26.2359 28.3563C26.1959 28.3568 26.1544 28.3577 26.112 28.3588C25.9484 29.4907 25.6227 30.571 25.1464 31.5465C26.2942 31.2762 27.1255 30.5733 27.4185 29.8772C27.5932 29.4614 27.5807 29.0818 27.3826 28.8081C27.1748 28.5207 26.7675 28.3561 26.2655 28.3561Z" fill="#372926"/>
<path d="M17.4645 32.5199C17.1641 32.367 16.8849 32.152 16.6346 31.8812C16.4872 31.7218 16.2303 31.7048 16.0607 31.8433C15.8911 31.9818 15.8729 32.2232 16.0203 32.3827C16.3348 32.7231 16.6905 32.9953 17.0768 33.1921C17.1383 33.2236 17.2048 33.2384 17.2703 33.2384C17.4148 33.2384 17.5547 33.1658 17.6284 33.0382C17.7353 32.8525 17.662 32.6204 17.4645 32.5199Z" fill="#372926"/>
</svg>
