<svg width="24" height="24" viewBox="0 0 24 24" fill="none" xmlns="http://www.w3.org/2000/svg">
<path d="M12 2C17.514 2 22 6.486 22 12C22 17.514 17.514 22 12 22C6.486 22 2 17.514 2 12C2 6.486 6.486 2 12 2ZM12 0C5.373 0 0 5.373 0 12C0 18.627 5.373 24 12 24C18.627 24 24 18.627 24 12C24 5.373 18.627 0 12 0ZM18 14H6C6.331 15.465 8.827 18 12.001 18C15.135 18 17.667 15.479 18 14ZM18 10.002L17.245 10.508C17.245 10.508 16.742 9.56 15.499 9.56C14.292 9.56 13.754 10.508 13.754 10.508L13 10.002C13.281 9.254 14.205 8 15.499 8C16.794 8 17.717 9.254 18 10.002V10.002ZM11 10.002L10.245 10.508C10.245 10.508 9.742 9.56 8.499 9.56C7.292 9.56 6.754 10.508 6.754 10.508L6 10.002C6.281 9.254 7.205 8 8.499 8C9.794 8 10.717 9.254 11 10.002V10.002Z" fill="#455E59"/>
</svg>
