<svg width="20" height="24" viewBox="0 0 20 24" fill="none" xmlns="http://www.w3.org/2000/svg">
<path fill-rule="evenodd" clip-rule="evenodd" d="M11 24H9V18.874C8.194 18.666 7.487 18.213 6.961 17.6C6.359 17.857 5.696 18 5 18C2.24 18 0 15.76 0 13C0 11.578 0.595 10.293 1.55 9.383C1.202 8.839 1 8.193 1 7.5C1 5.622 2.483 4.087 4.341 4.004C5.164 1.672 7.388 0 10 0C12.612 0 14.836 1.672 15.659 4.004C17.517 4.087 19 5.622 19 7.5C19 8.193 18.798 8.839 18.45 9.383C19.405 10.293 20 11.578 20 13C20 15.76 17.76 18 15 18C14.304 18 13.641 17.857 13.039 17.6C12.513 18.213 11.806 18.666 11 18.874V24Z" fill="#455E59"/>
</svg>
